#define close_width 14
#define close_height 14
static unsigned char close_bits[] = {
   0x00, 0x00, 0xe0, 0x01, 0xf8, 0x07, 0xfc, 0x0f, 0xcc, 0x0c, 0x0e, 0x1c,
   0x1e, 0x1e, 0x1e, 0x1e, 0x0e, 0x1c, 0xcc, 0x0c, 0xfc, 0x0f, 0xf8, 0x07,
   0xe0, 0x01, 0x00, 0x00 };
