#define desk_width 14
#define desk_height 15
static unsigned char desk_bits[] = {
   0x00, 0x00, 0x00, 0x00, 0x00, 0x00, 0x00, 0x00, 0x00, 0x00, 0xe0, 0x01,
   0xf0, 0x03, 0x18, 0x06, 0x18, 0x06, 0x18, 0x06, 0x18, 0x06, 0xf0, 0x03,
   0xe0, 0x01, 0x00, 0x00, 0x00, 0x00 };
