#define max_pressed_width 14
#define max_pressed_height 15
static unsigned char max_pressed_bits[] = {
   0x00, 0x00, 0x00, 0x00, 0x00, 0x00, 0x00, 0x00, 0x00, 0x00, 0xc0, 0x00,
   0xc0, 0x00, 0xc0, 0x00, 0xf8, 0x07, 0xf8, 0x07, 0xc0, 0x00, 0xc0, 0x00,
   0xc0, 0x00, 0x00, 0x00, 0x00, 0x00 };
